<?xml version="1.0" encoding="UTF-8"?>
<svg width="548px" height="468px" viewBox="0 0 548 468" version="1.1" xmlns="http://www.w3.org/2000/svg" xmlns:xlink="http://www.w3.org/1999/xlink">
    <!-- Generator: Sketch 54.1 (76490) - https://sketchapp.com -->
    <title>Group 4</title>
    <desc>Created with Sketch.</desc>
    <g id="Page-1" stroke="none" stroke-width="1" fill="none" fill-rule="evenodd">
        <g id="(E)-HUB-EN-mission" transform="translate(-775.000000, -162.000000)">
            <g id="Group-4" transform="translate(775.000000, 162.000000)">
                <g id="Group-2" transform="translate(0.000000, 33.000000)" fill="#E4E9FF">
                    <rect id="Rectangle" x="314" y="104" width="138" height="269" rx="69"></rect>
                    <rect id="Rectangle-Copy-2" x="72" y="116" width="313" height="216" rx="95"></rect>
                    <path d="M91.1124429,332 L184.887557,332 C193.786785,332 201,339.369313 201,348.464908 L201,350.535092 C201,359.627299 193.786785,367 184.887557,367 L91.1124429,367 C82.2148731,367 75,359.627299 75,350.535092 L75,348.464908 C75,339.369313 82.2148731,332 91.1124429,332" id="Fill-283"></path>
                    <path d="M38.2806619,385 L220.716022,385 C226.94824,385 232,390.149607 232,396.499155 C232,402.850393 226.94824,408 220.71768,408 L38.2806619,408 C32.0484444,408 27,402.850393 27,396.499155 C27,390.149607 32.0484444,385 38.2806619,385" id="Fill-284"></path>
                    <path d="M366.854297,413 L387.144082,413 C393.138754,413 398,417.925398 398,423.999179 C398,430.074602 393.138754,435 387.144082,435 L366.854297,435 C360.859625,435 356,430.074602 356,423.999179 C356,417.925398 360.859625,413 366.854297,413" id="Fill-285"></path>
                    <path d="M357.28336,355 L458.71664,355 C468.814688,355 477,363.059188 477,373 C477,382.940812 468.814688,391 458.71664,391 L357.28336,391 C347.185312,391 339,382.940812 339,373 C339,363.059188 347.185312,355 357.28336,355" id="Fill-286"></path>
                    <path d="M105,365 L170,365 C165.19736,365 160.831323,367.0328 157.68744,370.11005 C154.528385,373.20215 152.576312,376.8536 152.576312,381.56765 C152.576312,390.9809 160.38292,398 170,398 L105,398 C109.800954,398 114.153505,396.7526 117.310874,393.6869 C120.456443,390.60965 122.406831,386.55065 122.406831,381.83825 C122.406831,372.4118 114.615395,365 105,365" id="Fill-287"></path>
                    <path d="M342.850769,169 L508.147568,169 C525.186744,169 539,182.655097 539,199.499178 C539,216.343259 525.186744,230 508.147568,230 L342.850769,230 C325.811593,230 312,216.343259 312,199.499178 C312,182.655097 325.811593,169 342.850769,169" id="Fill-288"></path>
                    <path d="M284.865068,289 L528.138236,289 C539.108867,289 548,297.954305 548,308.999168 C548,320.045695 539.108867,329 528.136584,329 L284.865068,329 C273.894437,329 265,320.045695 265,308.999168 C265,297.954305 273.894437,289 284.865068,289" id="Fill-289"></path>
                    <path d="M237.394359,148 L44.6056415,148 C26.5980588,148 12,133.450519 12,115.500825 C12,97.5511307 26.5980588,83 44.6056415,83 L237.394359,83 C255.401941,83 270,97.5511307 270,115.500825 C270,133.450519 255.401941,148 237.394359,148" id="Fill-291"></path>
                    <path d="M324.989093,373 L47.0125588,373 C21.0473184,373 0,351.731493 0,325.499166 C0,299.266839 21.0473184,278 47.0125588,278 L324.987441,278 C350.952682,278 372,299.266839 372,325.499166 L372,325.500834 C372,351.731493 350.952682,373 324.989093,373" id="Fill-292"></path>
                    <path d="M426.092302,141 L272.90605,141 C258.598051,141 247,129.582477 247,115.499189 C247,101.4159 258.598051,90 272.90605,90 L426.092302,90 C440.401949,90 452,101.4159 452,115.499189 C452,129.582477 440.401949,141 426.092302,141" id="Fill-293"></path>
                    <path d="M256.749533,17.7610831 C259.910012,17.7610831 262.994055,17.9904433 266,18.4077515 C264.665686,8.03557207 255.460084,0 244.277105,0 L126.905678,0 C114.807123,0 105,9.4021768 105,20.9992036 C105,32.599416 114.807123,42 126.905678,42 L205.665088,42 C217.969688,27.3846562 237.113684,17.7610831 256.749533,17.7610831" id="Fill-294"></path>
                    <path d="M357.80702,62 L321.191321,62 C313.353159,62 307,55.5073362 307,47.4991524 C307,39.4926638 313.353159,33 321.191321,33 L357.80702,33 C365.646841,33 372,39.4926638 372,47.4991524 C372,55.5073362 365.646841,62 357.80702,62" id="Fill-295"></path>
                    <path d="M385,230 L499,230 C490.578966,230 482.92333,233.324151 477.405874,238.862766 C471.867019,244.425932 468.444945,250.974395 468.444945,259.455809 C468.444945,276.392449 482.133241,289 499,289 L385,289 C393.421034,289 401.053626,286.608772 406.594126,281.096344 C412.108291,275.557729 415.530365,268.51498 415.530365,260.035203 C415.530365,243.074012 401.865113,230 385,230" id="Fill-290"></path>
                </g>
                <g id="Group">
                    <path d="M330.429524,115.278974 C330.258487,115.391796 330.09581,115.517439 329.945993,115.659108 C328.545553,116.98092 329.077952,118.826458 328.204767,120.29635 C327.815756,120.952128 325.659799,121.709189 326.444251,122.700869 C326.736813,123.064977 327.616428,124.373969 328.580918,125.632319 C329.987144,127.466959 329.771741,129.920197 329.756953,132.065739 C329.736377,134.950393 329.716444,137.834406 329.695868,140.71906 C329.678507,143.228709 329.659218,145.75182 329.230341,148.22493 C328.195122,154.191677 324.921,158.884048 322.003739,163.961681 C318.910298,169.347009 315.560946,174.932341 313.263531,180.709342 C312.450787,182.751677 311.795577,184.938245 312.059204,187.119684 C312.719559,192.587707 317.813995,193.260793 321.562646,190.136392 C323.137336,188.824194 324.356452,187.144685 325.492621,185.441457 C328.555841,180.85101 331.146461,175.947098 333.209827,170.831645 C334.171745,168.447638 335.01921,166.018759 335.866032,163.591163 C338.048995,157.332104 339.164588,151.470487 339.441075,144.854372 C339.307975,141.749202 338.837947,138.674802 338.438648,135.596555 C338.194311,133.716402 336.812518,129.607372 338.546671,128.22402 C338.831517,127.996453 339.16716,127.831707 339.417927,127.568242 C339.701487,127.271443 339.851948,126.875284 339.983761,126.486818 C340.466649,125.063721 340.847944,123.566906 340.986831,122.065604 C341.23374,119.382876 337.948045,116.716814 336.21775,115.092433 C335.786944,114.687941 335.327204,114.283448 334.762656,114.105241 C333.845104,113.815493 332.861967,114.178319 331.96885,114.537298 C331.440309,114.748839 330.901481,114.967432 330.429524,115.278974" id="Fill-3" fill="#D39689"></path>
                    <path d="M333.964544,184.594407 C337.560626,175.917994 339.91631,166.780642 341,157.962159 C337.364109,156.718883 333.728217,155.474344 330.092326,154.231068 C329.596925,154.061215 329.049709,153.891993 328.563786,154.087735 C328.165063,154.247485 327.898406,154.619394 327.656393,154.974887 C324.519694,159.591867 321.791196,164.636954 317.740785,168.551158 C314.884645,171.311117 311.929298,173.689064 309.166046,176.589199 C304.649301,181.328676 299.93667,185.90714 295.520396,190.739436 C291.557186,195.076063 287.483395,199.599593 285.69578,205.194019 C281.877905,217.138688 294.516955,227.768098 305.443586,220.763699 C318.356877,212.484453 327.914835,199.191692 333.964544,184.594407" id="Fill-4" fill="#353A85"></path>
                    <path d="M210.204838,91 L201.149181,94.9593841 C196.828827,96.848253 194.83607,101.933718 196.697396,106.317367 L211.751979,141.774624 C213.613305,146.158908 218.623989,148.181154 222.944343,146.292285 L232,142.332901 L210.204838,91" id="Fill-7" fill="#8CABEF"></path>
                    <path d="M464,11.7311726 C378.666437,-10.6744751 271.368098,39.8430113 271.368098,39.8430113 L271.344069,39.7872979 L201,70.1333704 L240.964815,163 L311.308885,132.654561 L311.284856,132.598847 C311.284856,132.598847 421.65318,89.2164738 464,11.7311726" id="Fill-8" fill="#BABCBE"></path>
                    <path d="M271,40.0043962 C271,40.0043962 243.012555,2.08746686 182.337096,28.1419827 L152,41.168925 L157.92036,54.8636567 C157.92036,54.8636567 203.724619,37.6431485 215.119476,64 L271,40.0043962" id="Fill-9" fill="#5D66D3"></path>
                    <path d="M311.601158,132 C311.601158,132 320.038639,178.642527 259.298033,204.880419 L228.927413,218 L223,204.208549 C223,204.208549 267.066627,182.707436 255.659417,156.165074 L311.601158,132" id="Fill-10" fill="#5D66D3"></path>
                    <path d="M341.450206,101.216972 C324.209189,108.645485 304.211008,100.690586 296.783131,83.4502056 C289.354618,66.2098248 297.30888,46.2116441 314.549261,38.7831309 C331.790278,31.3546176 351.788458,39.3088802 359.216972,56.549261 C366.645485,73.7902776 358.690586,93.7884583 341.450206,101.216972" id="Fill-11" fill="#F7F7F7"></path>
                    <path d="M338.587443,92.9126639 C325.657148,98.4840269 310.658559,92.5183423 305.087224,79.587983 C299.515889,66.6569958 305.482172,51.6583316 318.412466,46.0869686 C331.342761,40.5162335 346.34135,46.4819181 351.912685,59.4122774 C357.48402,72.3426367 351.518365,87.3413009 338.587443,92.9126639" id="Fill-12" fill="#8CABEF"></path>
                    <polyline id="Fill-13" fill="#F7F7F7" points="273.771569 149 234 56.4199352 244.227802 52 284 144.580065 273.771569 149"></polyline>
                    <path d="M212,141.645104 L196.6649,106.026749 C196.6649,106.026749 152.825922,103.269895 135,153.731623 C183.891388,175.425343 212,141.645104 212,141.645104" id="Fill-14" fill="#474EBB"></path>
                    <path d="M209,135.97953 L198.843033,112.018001 C198.843033,112.018001 169.806993,110.163163 158,144.110159 C190.382785,158.704501 209,135.97953 209,135.97953" id="Fill-15" fill="#353A85"></path>
                    <path d="M394.229231,86 C420.798399,66.7240247 447.521419,41.7972318 464,11.7411768 C430.793625,3.04985656 394.286448,5.31310224 362,11.3458861 L394.229231,86" id="Fill-16" fill="#5D66D3"></path>
                    <path d="M310.878393,132.720293 L310.854389,132.665333 C310.854389,132.665333 331.323066,124.624142 358,109.296666 C274.093775,123.053048 227.547638,100.177125 207,85 L240.60595,163 L310.878393,132.720293" id="Fill-17" fill="#B8B7B5"></path>
                    <path d="M257,108 L274.721255,149 L285,144.58544 L270.41726,110.846802 C265.701583,110.021633 261.228109,109.064714 257,108" id="Fill-18" fill="#DBDAD8"></path>
                    <path d="M348,87.2741786 C334.841247,87.5354061 314.897732,86.5363703 303,74 C303.326577,76.1420653 303.927427,78.2777592 304.825514,80.3605705 C310.485117,93.4818355 325.721332,99.5353044 338.856485,93.8819595 C342.474982,92.3247889 345.552587,90.0387299 348,87.2741786" id="Fill-20" fill="#7D9CD3"></path>
                    <path d="M211.741664,141.859535 C213.603938,146.172576 218.617175,148.16196 222.93973,146.303785 L232,142.40874 L232,142.408115 C231.989355,142.403117 212.358456,132.834828 196,104 C196.045085,104.999066 196.259241,106.006254 196.679411,106.978453 L211.741664,141.859535" id="Fill-21" fill="#7D9CD3"></path>
                    <path d="M259.014468,205.803069 C261.092892,204.893223 263.081359,203.955882 265,203 C250.559237,204.969949 236.886559,204.613811 225.921367,203.55179 C224.108408,204.578645 223,205.127238 223,205.127238 L228.881107,219 L259.014468,205.803069" id="Fill-22" fill="#525EB2"></path>
                    <path d="M309.095885,178.849291 C307.41607,181.928662 304.859775,184.407572 302.717549,187.178686 C300.632568,189.874661 299.769445,192.390177 299.02908,195.642301 C298.494159,197.990844 297.516546,199.784522 294.652401,199.978468 C289.24977,200.34324 291.10768,195.998083 290.132611,192.663114 C289.018246,188.850345 286.274951,185.697762 284.451388,182.232425 C279.18042,172.218527 282.281176,153.443031 295.001594,150.343751 C308.910158,146.955479 314.193212,169.505855 309.095885,178.849291" id="Fill-52" fill="#D39689"></path>
                    <path d="M288.187802,167.93961 C286.616093,167.885583 284.883464,167.881026 283.643287,168.85418 C282.402463,169.826683 282.357871,172.147932 283.873356,172.512458 C285.247309,172.843786 287.155721,171.517172 287.926066,172.647853 C288.376511,173.308556 287.873072,174.187975 287.442662,174.889036 C285.79017,177.578717 285.117411,180.79045 285.571087,183.822524 C284.959723,184.313332 284.107949,183.692336 283.646518,183.09868 C281.355519,180.150577 279.644863,176.780014 278.625708,173.205057 C278.062167,174.009617 277.273727,174.670972 276.370899,175.097988 C276.987433,173.828656 276.764473,172.373157 276.542158,171.014647 C275.725283,166.021944 275.347866,160.216869 279.044485,156.464856 C281.022048,154.45736 283.879819,153.43148 286.700107,153.121633 C289.520395,152.812437 292.346499,153.150925 295.14029,153.488763 C296.335875,153.633922 297.794489,154.004957 298,155.144752 C295.290223,156.00985 292.415649,157.875441 290.912443,160.285218 C290.451658,161.025336 288.347429,167.944818 288.187802,167.93961" id="Fill-53" fill="#292949"></path>
                    <path d="M294.930709,157.591624 C294.833432,157.65336 294.737402,157.716383 294.643243,157.779406 C293.42728,158.594202 292.269308,159.609643 290.847566,159.903535 C288.798512,160.326689 286.714537,159.163338 284.687931,159.716396 C282.422497,160.335049 280.773776,162.946641 279.044613,164.435396 C276.209859,166.875926 272.791442,168.567255 269.192814,169.401344 C267.354526,169.82707 265.4676,170.030929 263.583792,169.996203 C262.7295,169.980125 261.580258,170.059225 260.767121,169.765333 C259.677119,169.370475 259.753195,168.851501 260.966664,168.551178 C264.773566,167.608406 266.328128,162.312553 266.305056,158.720891 C266.286973,155.886147 265.557394,152.868765 266.788324,150.333701 C267.728669,148.397997 269.512706,147.49767 271.24748,146.48223 C273.16122,145.361966 275.112374,145.853287 277.225656,145.406339 C279.42998,144.940098 281.315035,143.322082 283.54929,143.044266 C285.908883,142.750374 288.156857,143.992182 290.449728,144.637202 C292.344137,145.170325 294.344553,145.2983 296.288847,145.011481 C298.030481,144.754245 299.754655,144.167746 301.508137,144.318872 C304.094086,144.542668 306.353908,146.390911 307.707057,148.674526 C309.62142,151.904129 310.623499,157.256573 309.579017,161.234733 C309.741146,160.617366 307.861079,158.190984 307.475712,157.670724 C306.662575,156.572325 305.66112,155.524087 304.318572,155.253346 C301.278663,154.641123 297.529754,155.934379 294.930709,157.591624" id="Fill-54" fill="#292949"></path>
                    <path d="M184.000322,403.622695 C184.697873,405.54788 185.859606,407.203119 186.780937,409 C205.785536,402.591188 224.597686,393.116436 243,384.951393 C240.838294,380.300717 238.676588,375.650676 236.515521,371 C227.84504,378.267555 218.478287,384.713842 208.587251,390.230882 C207.019518,391.105504 183.90058,403.348304 184.000322,403.622695" id="Fill-55" fill="#D39689"></path>
                    <path d="M191.897631,408.530924 C192.554464,409.614235 192.315167,410.508157 191.924151,411.568741 C191.697189,412.184259 191.246349,412.724021 191.169873,413.385624 C191.093396,414.047858 191.245115,414.604665 191.433223,415.277631 C192.425565,418.82112 195.620302,426.61326 188.425976,424.702945 C181.892183,422.968132 179.977191,412.062418 179.082294,405.676184 C179.023087,405.256369 178.921941,404.828979 179.10203,404.429997 C179.282736,404.031015 179.621946,403.673068 180.002477,403.379513 C182.122229,401.743814 184.738459,399.623276 186.900766,402.210345 C187.823416,403.313858 187.45522,404.827085 188.439544,405.992465 C189.245629,406.946991 191.240798,407.448244 191.897631,408.530924" id="Fill-56" fill="#292949"></path>
                    <path d="M249.722162,307.220908 C248.398229,311.726256 249.535389,315.568071 250.378412,321.162701 C251.117883,326.068567 251.420914,331.039399 251.283692,335.997616 C251.16553,340.251301 250.703677,344.574367 249.004291,348.481148 C246.253507,354.80617 240.845328,358.046893 236.378005,362.911761 C232.645707,366.976856 228.905785,370.594759 224.464509,374.041732 C214.965096,381.414408 204.862797,387.960819 195,394.833321 C197.814947,399.993374 199.411418,401.688792 202.227,406.848845 C202.723157,407.757736 219.437501,404.279857 220.523202,404.063514 C224.193878,403.33123 227.792766,402.241948 231.251892,400.819007 C237.889348,398.089181 244.404829,394.263766 250.683984,390.845806 C265.158313,382.96728 277.543825,371.319475 286.179887,357.346776 C291.784369,348.279312 295.801275,338.351524 299.790864,328.477979 C301.762788,323.597973 304.263269,318.661832 305.639296,313.582513 C306.538859,310.260426 308.750285,305.743724 307.742088,302.337748 C306.869842,299.199835 304.731474,297.172649 301.80027,295.194661 C293.958314,289.902153 283.861097,281.011926 273.714964,283.398632 C268.317584,284.668304 266.091546,287.914072 262.243626,291.272112 C258.138416,294.855955 254.428988,298.230394 251.617852,302.981099 C250.722736,304.494235 250.114768,305.886901 249.722162,307.220908" id="Fill-57" fill="#292949"></path>
                    <path d="M335.646951,429.180879 C337.344358,432.961481 339.593311,429.456937 341.478397,430.789107 C347.284947,408.235297 347.310482,392.732362 342.635111,370 C337.736313,371.088403 332.886669,372.368653 328,373.458323 C333.011788,383.973852 335.80335,391.398926 337.184767,404.30147 C337.403726,406.347212 335.405011,428.642693 335.646951,429.180879" id="Fill-58" fill="#D39689"></path>
                    <path d="M343.854756,427.010582 C345.13321,426.903718 345.602885,427.61964 346.223414,428.551911 C346.584069,429.094096 346.696892,429.80674 347.154524,430.276809 C347.612156,430.747534 348.211769,430.904223 348.857017,431.084515 C352.251862,432.035143 360.583682,433.377823 355.276544,438.657415 C350.457462,443.452514 340.3623,439.819148 334.582952,437.198692 C334.203282,437.026924 333.733607,436.910226 333.492114,436.525386 C333.249987,436.139889 333.104838,435.705223 333.076949,435.187295 C332.921658,432.305908 332.687772,429.393708 335.885492,428.496184 C337.249514,428.113311 338.392961,429.303235 339.878681,428.915116 C341.095653,428.597147 342.575668,427.11679 343.854756,427.010582" id="Fill-59" fill="#292949"></path>
                    <path d="M298.128751,335.23991 C304.488862,340.023335 310.848973,344.806761 317.209717,349.590187 C319.304656,351.165552 321.443253,352.786782 322.881428,354.985795 C324.188629,356.984782 324.834637,359.33668 325.43762,361.651632 C328.754343,374.379405 331.345336,387.29956 333.194779,400.325462 C333.64844,403.515686 334.056545,406.712281 334.420992,409.913972 C334.732924,412.66019 333.506711,416.087388 335.66682,417.768499 C338.154046,419.703783 346.214278,419.480824 349.403825,420 C350.841367,402.626398 352.278909,385.25216 353.715818,367.878558 C353.97207,364.779428 354.226424,361.635706 353.65571,358.579257 C353.13498,355.789084 351.944832,353.177279 350.76544,350.597962 C339.458717,325.868625 326.000109,303.17331 309.581633,281.459653 C308.891967,280.547432 308.171931,279.614189 307.184886,279.042777 C305.810616,278.246495 304.133906,278.266243 302.54894,278.308286 C296.525436,278.46818 287.252278,276.932948 281.767852,279.519272 C274.716177,282.846457 269.224159,287.560448 264.572395,293.854261 C261.472062,298.049713 263.442355,306.013808 266.293396,310.050003 C268.156126,312.687289 270.774326,314.667802 273.348867,316.603723 C281.608407,322.815997 289.868579,329.027635 298.128751,335.23991" id="Fill-60" fill="#292949"></path>
                    <path d="M272.163348,201.939396 C270.079795,203.402124 268.165694,205.050856 266.517511,206.827387 C260.990987,212.783952 256.580812,219.779359 253.407567,227.241674 C246.136394,244.339517 244.738897,263.111398 243.428346,281.510639 C242.991708,287.634229 242.556339,293.758452 242.1197,299.882042 C241.690043,305.906936 242.117796,307.245661 248.517597,306.965389 C260.376647,306.445969 272.770707,304.935158 283.79329,300.404625 C289.03803,298.249127 293.997177,295.391367 299.450715,293.801473 C307.383193,291.48844 315.219838,293.461731 323,292.169191 C321.4724,285.95766 318.948401,280.194057 318.032602,273.733255 C317.115535,267.266127 316.920697,260.716119 316.938468,254.190152 C316.963219,245.018369 316.574179,235.854811 316.401555,226.686824 C316.267644,219.561088 316.295568,211.196589 311.901259,205.148287 C310.427604,203.119322 308.361187,201.266871 306.03266,200.270419 C304.321646,199.538423 301.221386,199.066453 300.212294,197.277901 C300.12027,197.114673 300.113923,196.917913 300.110116,196.730011 C300.063786,194.458101 300.777766,192.398768 298.557129,191.586423 C297.319564,191.134066 295.553971,191.180883 294.247863,191.100534 C292.401669,190.987919 287.749692,190.542521 287.21976,193.126336 C287.079503,193.810882 287.095369,194.532124 286.839605,195.182506 C286.776141,195.343836 286.692367,195.503268 286.559091,195.615883 C286.387735,195.760131 286.157358,195.807582 285.937769,195.852501 C281.182345,196.828707 276.333626,199.01141 272.163348,201.939396" id="Fill-61" fill="#353A85"></path>
                    <path d="M370.092555,149.000457 C369.890565,149.003008 369.689838,149.020863 369.490374,149.059124 C367.630807,149.416861 367.089222,151.246995 365.586294,152.009657 C364.915941,152.350177 362.73256,151.829832 362.853122,153.080318 C362.901095,153.541359 362.932025,155.10877 363.05953,156.678732 C363.246371,158.967994 361.764272,160.906534 360.610407,162.69522 C359.060137,165.099264 357.509867,167.503308 355.959597,169.907352 C354.610054,171.999572 353.252937,174.101357 351.583998,175.942332 C347.555568,180.384394 342.355599,182.558874 337.245263,185.248598 C331.82563,188.100929 326.089126,190.983869 321.11892,194.589936 C319.36098,195.865291 317.657324,197.34534 316.714916,199.313213 C314.353532,204.244373 318.204589,207.536065 322.963969,206.92772 C324.961772,206.672012 326.862367,205.918915 328.706785,205.101412 C333.678884,202.898874 338.426902,200.179817 342.851736,197.00227 C344.913923,195.520945 346.905414,193.94078 348.896274,192.361891 C354.028072,188.29032 358.066601,183.97962 361.812245,178.588694 C363.353678,175.917463 364.599701,173.091276 365.906952,170.300162 C366.704811,168.59565 367.747582,164.415036 369.916445,164.185472 C370.272452,164.147849 370.637296,164.189936 370.985096,164.103211 C371.377082,164.006284 371.711628,163.75504 372.027236,163.500606 C373.182995,162.568322 374.293938,161.518704 375.206679,160.33645 C376.837113,158.221912 375.539961,154.230688 374.973759,151.943339 C374.832998,151.373893 374.66825,150.789143 374.297094,150.337667 C373.692388,149.6037 372.686859,149.381788 371.758969,149.203239 C371.209179,149.098022 370.648026,148.992167 370.092555,149.000457" id="Fill-62" fill="#D39689"></path>
                    <path d="M335.725954,207.511222 C337.329682,206.597796 338.908561,205.643479 340.438379,204.613044 C346.123107,200.785085 351.085935,195.916625 355,190.328496 C353.285406,186.380382 351.212092,182.584505 348.814465,179 C333.225744,185.672036 317.467539,188.991698 301.190687,193.272596 C295.464543,194.778617 289.542791,196.381516 284.976913,200.111338 C276.56196,206.98531 279.167939,221.040243 290.154464,223.470384 C303.448139,226.41071 319.115868,216.419641 330.340053,210.443998 C332.144486,209.48402 333.950193,208.522155 335.725954,207.511222" id="Fill-63" fill="#353A85"></path>
                    <path d="M51.6016139,140.476753 C51.7349148,140.634555 51.8707427,140.798696 51.9509759,140.981215 C52.6977136,142.686626 52.0697464,144.02383 52.3218177,145.862961 C52.4342706,146.683029 54.3567094,147.58485 53.0514979,148.713552 C52.5694668,149.129923 51.2446707,149.984213 50.208588,150.862585 C48.698687,152.143386 47.5558372,154.682173 47.0194749,156.866696 C44.9125627,165.446986 45.1924314,174.365062 45.7445877,183.177303 C45.7761756,183.679863 45.8166081,184.203338 46.074997,184.634919 C46.5387072,185.407455 47.5267763,185.639407 48.4074467,185.81939 C52.4898653,186.654034 56.4958412,187.870193 60.3546176,189.44632 C63.7976974,190.853236 67.2060304,192.607446 69.7084229,195.366143 C72.2101836,198.124206 73.6739664,202.063572 72.691583,205.660716 C71.956217,208.354137 69.8474096,210.630553 67.2230879,211.564061 C60.7153513,213.877869 53.9226919,206.397129 49.1857722,202.839278 C44.7034509,199.472818 40.4561435,195.79202 36.4868096,191.829839 C35.9971973,191.340587 35.4987404,190.829154 35.2397197,190.185902 C34.9642734,189.500822 34.9876484,188.736524 35.0167093,187.99821 C35.3982909,178.488215 36.6137929,169.06631 38.0264032,159.620323 C38.4149342,157.024499 40.1137308,154.962923 40.4510895,152.559757 C40.6665189,151.025458 39.7353079,149.66734 39.6196963,148.174868 C39.5040846,146.698239 39.7289904,144.730457 40.1642715,143.316569 C41.0240938,140.52872 43.8625814,139.541343 46.2582068,138.434189 C46.8545861,138.158509 47.2570158,137.970287 47.8717161,138.003875 C48.8711568,138.059011 49.6096817,138.69149 50.3652639,139.292915 C50.8125484,139.64908 51.2339309,140.042637 51.6016139,140.476753" id="Fill-87" fill="#D39689"></path>
                    <path d="M48.2462441,207.477637 C46.8287926,206.115116 45.4927894,204.682527 44.2521248,203.182417 C40.5086639,198.657882 36.7645717,194.132709 33.0211108,189.608174 C32.6864787,189.203685 32.346164,188.789005 32.1636948,188.295338 C31.8517923,187.449417 32.048152,186.509857 32.236935,185.628264 C33.6897438,178.848149 34.5193791,171.932992 34.7125819,165 C38.9504144,166.792488 43.6201119,167.537766 48.1995218,167.151113 C48.2083612,171.798588 48.2178319,176.446062 48.2266712,181.093537 C48.227934,181.620964 48.2380361,182.18024 48.5190009,182.625496 C48.7854439,183.046546 49.2495093,183.290513 49.6946332,183.509 C60.4899939,188.808752 72.3151378,190.933111 83.7564018,194.395149 C89.2847781,196.069794 95.0006747,197.846357 99.3300576,201.697595 C108.575377,209.920491 103.286294,225.394874 90.5418586,224.992296 C75.4827787,224.515828 59.3509817,218.153578 48.2462441,207.477637" id="Fill-88" fill="#3B3387"></path>
                    <polyline id="Fill-89" fill="#D39689" points="92.8003687 418.363193 93 431.893262 83.2212474 432 83 417 92.8003687 418.363193"></polyline>
                    <path d="M84.474035,426 L91.8125134,428.445427 L94,430.819672 L93.6296421,436.445643 L73.793991,438 C72.1180733,435.539689 73.2079654,432.202545 76.0045849,431.234469 L76.9275913,430.914797 L84.474035,426" id="Fill-90" fill="#292949"></path>
                    <polyline id="Fill-91" fill="#D39689" points="153.395623 401 159 413.776208 151.213353 417 145 402.835727 153.395623 401"></polyline>
                    <path d="M148.953961,416.287532 C149.230309,415.974195 149.550491,415.676558 149.923402,415.395928 C150.847103,414.701222 158.291341,410.638961 158.930435,412.469923 C159.033987,412.76756 159.000952,413.094634 158.964741,413.408625 C158.351693,418.676482 157.15101,423.871728 155.394454,428.859609 C154.64355,430.993441 153.503218,433.356878 151.360411,433.888701 C150.420828,434.121578 149.43487,433.950191 148.492111,433.729743 C147.102113,433.405285 145.73435,432.978127 144.403434,432.452845 C143.916807,432.260526 143.399687,432.023724 143.14748,431.5547 C142.642431,430.614689 143.523567,429.501328 144.443456,428.995017 C145.36398,428.488707 146.487795,428.125 146.93694,427.154898 C147.138324,426.720544 147.166912,426.225353 147.192323,425.7439 C147.379731,422.174213 146.79146,418.746476 148.953961,416.287532" id="Fill-92" fill="#292949"></path>
                    <path d="M99.6283378,348.161545 C102.348054,360.687246 110.124347,369.685349 118.431086,378.896227 C127.936216,389.436463 136.878101,400.492437 145.203762,412 C148.802088,410.488989 152.401044,408.977979 156,407.466333 C152.991409,389.865186 144.699808,373.715346 138.275173,357.068188 C133.810222,345.499651 130.192974,333.266752 129.996817,320.765187 C129.899053,314.54775 131.395149,308.861929 132.196179,302.814711 C133.18832,295.324442 133.245086,287.646806 134.141987,280.121604 C134.442215,277.598172 134.613143,274.613624 132.686257,272.971773 C131.828462,272.241356 130.69819,271.933946 129.59504,271.718632 C88.6744172,263.738666 94.4557056,324.344231 99.6283378,348.161545" id="Fill-93" fill="#474EBB"></path>
                    <path d="M131.999614,282.757659 C132.021586,275.125254 131.104388,267.768419 129.699397,262.158138 C118.112936,261.527899 105.019783,262.830479 93.5613908,265.192602 C82.3616473,267.501779 75.3768745,269.978723 75.2965176,282.31815 C75.1477318,305.024636 66.413313,324.36623 62.6421886,346.191146 C60.4505796,358.874398 64.2373987,370.219349 68.4335358,381.966172 C73.2348608,395.407244 77.3236461,409.111765 80.6760357,423 C84.5563952,422.976398 88.4373826,422.952796 92.31837,422.929194 C96.1478787,405.418357 94.5683633,387.230076 94.8935576,369.295678 C95.1195614,356.832499 96.3757658,344.077802 100.882658,332.384561 C105.837791,319.531629 112.973233,324.647541 121.162104,317.193108 C129.123715,309.946629 131.961946,295.941021 131.999614,282.757659" id="Fill-94" fill="#474EBB"></path>
                    <path d="M119.651478,196.024518 C120.940005,197.023196 122.072366,198.228061 123.19145,199.421542 C124.193568,200.491057 125.195685,201.560572 126.198435,202.630088 C129.670756,206.335126 131.386053,211.819317 132.874371,216.55276 C140.707326,241.460892 143.5259,275.633517 138.439443,301.659864 C119.147574,303.327068 96.8183727,298.460805 77.5694973,295.830974 C75.6974027,295.574822 73.5774657,295.155491 72.6056963,293.534458 C72.0170708,292.552224 72,291.342299 72,290.196887 C72.002529,273.674742 75.4925534,255.918006 78.766348,239.629876 C80.147816,232.75677 81.8498352,225.941852 84.0323649,219.277463 C86.3426093,212.222836 88.9481148,204.605307 94.3551236,199.268483 C100.140218,193.557866 111.217885,190.73766 118.460317,195.195344 C118.87381,195.450231 119.269599,195.727888 119.651478,196.024518" id="Fill-95" fill="#3B3387"></path>
                    <path d="M111.897936,194.583788 C111.779527,194.826124 111.617766,195.059556 111.399712,195.282175 C110.537849,196.161202 109.325935,196.678313 108.115315,196.879943 C106.519704,197.145177 104.884623,196.924466 103.287071,196.666864 C101.129178,196.317671 101.173177,195.080546 100.812126,193.171748 C100.614778,192.128619 100.48084,191.076586 100.37343,190.021372 C100.314549,189.443199 100.488604,187.362667 100.102319,186.966405 C99.8402658,186.697354 98.8043478,186.816296 98.3436523,186.594314 C97.6131393,186.242576 96.9932708,185.575991 96.542928,184.924672 C95.8169443,183.874547 95.4002477,182.652687 94.9926098,181.448001 C94.2828022,179.352203 93.5736417,177.256405 92.8638341,175.160607 C92.1384974,173.019013 91.4099255,170.85961 91.1362258,168.618792 C90.7240586,165.241345 91.1569312,160.447406 93.6920508,157.906371 C96.0052342,155.58859 99.4442746,154.710835 102.607027,154.232523 C106.794698,153.599013 111.170012,154.24588 114.856223,156.346766 C116.344425,157.195262 117.763393,158.308357 118.669902,159.864781 C120.066871,162.265249 120.044224,165.305587 119.97499,168.149384 C119.910933,170.775015 119.846229,173.40001 119.782171,176.025004 C119.708408,179.044353 119.416591,182.528656 117.160995,184.221832 C115.963316,185.120576 114.372234,185.346376 113.357021,186.485548 C112.084932,187.913489 112.224047,190.003563 112.214988,191.773065 C112.209812,192.785027 112.312045,193.739744 111.897936,194.583788" id="Fill-96" fill="#D39689"></path>
                    <path d="M98.2325796,160.96738 C98.094247,161.213407 97.9804781,161.468221 97.8938586,161.731821 C97.4407223,163.115721 97.811764,164.655899 97.3702632,166.042938 C96.6701966,168.242117 94.0838937,169.617858 93.7484048,171.896744 C93.4743252,173.760774 94.8266235,175.492376 94.9862878,177.36833 C95.1608196,179.418135 93.8582952,181.394508 94.1213857,183.41607 C94.3502163,185.171522 95.5654749,187.616099 96.6850642,189 C96.3379398,188.571336 93.3075503,188.8023 92.507936,188.354807 C91.2829813,187.669447 91.1336596,187.222582 90.742579,186.010649 C90.3547306,184.80813 90.5990751,183.606867 90.0114847,182.379871 C89.2900865,180.873584 87.8608648,179.790941 87.3275732,178.179214 C86.6003573,175.979408 87.7529137,173.6114 87.5977743,171.306782 C87.3624795,167.817846 84.1666081,164.604435 85.2079812,161.25734 C85.8181962,159.294147 87.7328748,158.000623 88.782005,156.220695 C89.5783872,154.868175 89.8440634,153.291595 90.3825264,151.824849 C90.9209893,150.357475 91.8750966,148.879431 93.4012804,148.400557 C94.2493757,148.134447 95.1711623,148.211644 96.0425285,148.032145 C97.5499663,147.720846 98.7807388,146.675232 100.227414,146.159956 C102.295939,145.422503 106.031566,147.380048 107.294659,149.067089 C108.548703,150.741578 107.976626,152.205814 106.780114,153.743481 C104.787865,156.304796 99.8563719,158.070917 98.2325796,160.96738" id="Fill-97" fill="#292949"></path>
                    <path d="M124.967745,150.235679 C126.223737,151.108747 127.762024,151.723082 128.915421,152.751009 C131.162951,154.75588 131.664456,158.041678 131.820579,161.048985 C131.959496,163.727458 133.193185,166.079008 132.973975,168.879201 C132.826774,170.760441 132.078022,172.678005 130.579881,173.824466 C128.714691,175.251965 125.735614,175.554671 124.94353,177.766658 C124.083262,180.16919 126.624558,183.102573 125.181219,185.207497 C124.384674,186.368615 122.77183,186.577004 121.610787,187.3736 C120.315286,188.261963 119.677413,189.805447 118.906995,191.174954 C118.137214,192.543823 116.963426,193.926076 115.394552,194 C115.269653,191.6134 115.15049,189.723238 116.115265,187.513163 C116.67667,186.225865 118.365982,183.833529 116.987004,182.49015 C116.110167,181.367269 114.100326,181.045445 114.012387,179.623044 C113.970967,178.955815 114.422767,178.373982 114.77707,177.806169 C116.145853,175.608202 116.217223,172.723252 115.189999,170.345574 C114.162775,167.967895 112.12362,166.100038 109.764573,165.030688 C106.999607,163.777803 107.422732,163.099741 106.562463,160.504751 C105.770379,158.117514 104.390764,157.587937 102.201859,156.766488 C100.236624,156.028521 99.5993879,155.55375 98.8353422,153.751533 C98.2758492,152.433008 97.5882717,150.854474 98.3121716,149.34859 C98.8875955,148.151785 99.9556027,147.278716 100.990474,146.446433 C103.152615,144.709218 105.585581,142.877685 108.356282,143.006415 C109.895207,143.07779 111.358937,143.762225 112.898499,143.810658 C113.925723,143.842522 114.939565,143.588886 115.965515,143.528982 C117.71409,143.425743 119.574181,143.91071 121.01752,144.916332 C122.474241,145.930876 122.462134,147.03209 123.294364,148.503561 C123.702195,149.224321 124.294187,149.767281 124.967745,150.235679" id="Fill-98" fill="#292949"></path>
                    <path d="M118.824565,140.501998 C118.513906,138.85469 118.6308,136.694814 120.199976,136.096081 C121.060165,135.767886 122.041694,136.078341 122.938729,135.872427 C124.850964,135.433356 125.446235,133.095445 126.411247,131.391114 C126.556094,131.135781 126.728894,130.876647 126.993811,130.750564 C127.373082,130.570627 127.817152,130.710649 128.235176,130.750564 C130.154399,130.934936 131.55967,129.015188 133.344211,128.28657 C135.552493,127.384352 138.393528,128.703466 139.124117,130.969149 C139.423975,131.899879 139.40174,132.909172 139.685081,133.845604 C140.832422,137.637582 146.482728,139.12016 146.726046,143.074334 C146.890587,145.746143 144.331622,148.375501 145.415434,150.824922 C146.107905,152.391133 148.177693,153.418166 147.98774,155.119963 C147.865763,156.214156 146.719693,156.987124 145.615552,156.999796 C144.51141,157.012467 143.481599,156.434008 142.631575,155.730734 C141.282211,154.614999 140.249858,153.165368 138.961481,151.980573 C137.673105,150.795144 135.970517,149.850476 134.237434,150.111511 C132.558352,150.364309 131.067952,151.710667 129.386964,151.473708 C128.042682,151.283634 127.018588,150.117847 125.694635,149.816262 C124.455811,149.533052 123.189035,150.047519 121.923529,150.156495 C120.657388,150.264837 119.083129,149.646463 119.017059,148.381203 C119.001176,148.07455 119.079318,147.755226 118.975129,147.466313 C118.683529,146.656597 117.286518,146.739596 117,145.92798 C117.635929,144.893977 118.578706,145.234843 119.018965,143.893554 C119.359482,142.855749 119.0196,141.536635 118.824565,140.501998" id="Fill-99" fill="#292949"></path>
                    <path d="M56,153.066733 L57.6776443,160.478222 C58.2227343,162.886142 60.6175346,164.417374 63.0271018,163.899246 L82.5129438,159.709164 C84.922511,159.191036 86.4338676,156.819409 85.8887777,154.412115 L84.2111333,147 L56,153.066733" id="Fill-100" fill="#878787"></path>
                    <path d="M94.8080039,38.7631526 C88.9610291,12.2648814 63.263724,-4.59366599 37.4131369,1.10851779 C11.5619139,6.81133747 -4.65417133,32.9147101 1.19280354,59.4129813 C3.27069617,68.8295016 7.85707012,77.0269869 14.064035,83.4286691 L14.0621269,83.4286691 C32.0234638,102.926869 39.168565,121 39.168565,121 L86.2763689,110.609269 C86.2763689,110.609269 85.1518773,91.2077272 93.2402031,65.9634658 L93.238295,65.9641018 C96.174821,57.5446846 96.8858966,48.179037 94.8080039,38.7631526" id="Fill-101" fill="#FFFFFF"></path>
                    <path d="M39,120.488768 L46.0203022,152.061116 C46.313737,153.380055 47.5772776,154.224628 48.8433478,153.947287 L92.1774769,144.461841 C93.4435471,144.1845 94.2321532,142.890659 93.9387184,141.57172 L86.9184162,110 L39,120.488768" id="Fill-102" fill="#BABCBE"></path>
                    <path d="M91.9859433,30 C85.3410308,56.4374197 70.3418585,98.3205574 39,120.875412 C39.0305923,120.949783 39.0509872,121 39.0509872,121 L86.2562518,110.61344 C86.2562518,110.61344 85.1294337,91.2196843 93.2344934,65.9855546 L93.2325814,65.9861903 C96.1751826,57.5701523 96.8877294,48.2082635 94.8055378,38.7961581 C94.1261328,35.7253213 93.1688473,32.7911498 91.9859433,30" id="Fill-103" fill="#EAEAEA"></path>
                    <path d="M10.0591025,61.1998749 C5.00589014,37.9229231 19.0202751,14.993398 41.3618201,9.98418263 C54.4204642,7.05632855 67.4318879,10.9016963 77,19.2488957 C67.2719681,8.18114662 52.3326929,2.61080185 37.3336052,5.97373915 C14.9920602,10.9823147 0.977675262,33.9124796 6.03088761,57.1887916 C8.13062137,66.8597956 13.1932778,75.0668726 19.9949041,81 C15.2331991,75.583214 11.7200013,68.8483818 10.0591025,61.1998749" id="Fill-104" fill="#DDDAE8"></path>
                    <polyline id="Fill-105" fill="#F6F7F7" points="53.4026739 117.470282 34.2029396 57.7353185 43.5788744 62.6915552 47.9971702 50.0667261 57.3642113 59.2966909 63.7048309 51.2057134 71.5853426 113.483827 74 112.954109 65.4009991 45 57.1120095 55.5773036 46.9496116 45.56318 42.1946233 59.1483195 30 52.702055 50.9880165 118 53.4026739 117.470282"></polyline>
                    <path d="M48,111.958217 L50.2112986,118 L53,117.462739 L50.2685253,110 C49.5223771,110.66085 48.7674248,111.314016 48,111.958217" id="Fill-106" fill="#EDECED"></path>
                    <path d="M69,88.4110976 L71.8667639,114 L74,113.471387 L70.8105287,85 C70.221237,86.1435431 69.6179145,87.2807856 69,88.4110976" id="Fill-107" fill="#DDDAE8"></path>
                    <polyline id="Fill-108" fill="#A2A2A3" points="89 123.716175 40.3177508 134 39 128.283825 87.6828917 118 89 123.716175"></polyline>
                    <polyline id="Fill-109" fill="#A2A2A3" points="93 136.716395 44.3177508 147 43 141.28422 91.6828917 131 93 136.716395"></polyline>
                    <path d="M69,135 L91,129.994255 L89.5037686,123 L75.9329243,126.088157 C73.6615834,129.389085 71.3343266,132.347327 69,135" id="Fill-110" fill="#96928D"></path>
                    <path d="M88,118.283933 L86.3550477,110 L85.643588,110.173729 C84.1627729,113.694052 82.6085437,116.963729 81,120 L88,118.283933" id="Fill-111" fill="#96928D"></path>
                    <path d="M48.6220791,154.947184 L92.1685465,145.397463 C93.4408205,145.118242 94.2332908,143.815634 93.9384181,142.487757 L92.7201618,137 L61.2780909,143.895231 C55.6278473,148.557329 50.2902704,151.632546 46,153.630678 C46.4861586,154.609845 47.5499881,155.182816 48.6220791,154.947184" id="Fill-112" fill="#96928D"></path>
                    <path d="M75,127 L89,123.994409 L87.6407767,118 L79.8646933,119.669558 C78.28269,122.284854 76.6562633,124.727905 75,127" id="Fill-113" fill="#878787"></path>
                    <path d="M61,144 L93,136.977928 L91.6741046,131 L69.5348856,135.858514 C66.6728919,138.994804 63.7992562,141.689118 61,144" id="Fill-114" fill="#878787"></path>
                    <path d="M85.2546776,151 C81.0999566,157.765937 71.2759214,161.806358 68,163 L82.6244937,159.597367 C84.9569796,159.054624 86.4199883,156.570328 85.8923356,154.04867 L85.2546776,151" id="Fill-115" fill="#5D5A59"></path>
                    <path d="M54.4954457,205.013308 L31.9915203,191 L5.57239226,245.200238 C4.34928448,247.635332 5.14414733,250.579288 7.40548181,251.987185 L33.5032689,268.237976 C35.7646034,269.645872 38.7447102,269.053041 40.3740533,266.871116 L77,219.026616 L54.4954457,205.013308" id="Fill-116" fill="#FFFFFF"></path>
                    <path d="M5,248.574001 C5.33102434,249.811911 6.09584818,250.918362 7.22637511,251.634945 L33.3936913,268.222042 C35.6610503,269.659075 38.6490967,269.054619 40.2827806,266.826896 L77,218 L5,248.574001" id="Fill-117" fill="#BABCBE"></path>
                    <polyline id="Fill-118" fill="#9F9B93" points="31 190 74.7898993 221 80 214.344698 31 190"></polyline>
                    <polyline id="Fill-119" fill="#8CABEF" points="23.9905639 206 67 232.661067 45.5861801 260 9 237.320368 23.9905639 206"></polyline>
                    <polyline id="Fill-120" fill="#292949" points="30 189.753094 78.0925633 220 81 215.246906 32.9074367 185 30 189.753094"></polyline>
                    <path d="M80,204.332866 C79.991775,203.445673 79.536239,202.631572 78.7902988,202.170332 L45.1331459,181.379882 C44.3865729,180.919273 43.4520914,180.874535 42.6498418,181.262052 L35,187.657659 L77.6457645,214 L80,204.332866" id="Fill-121" fill="#5D66D3"></path>
                    <path d="M29.569302,239.780319 C29.7594807,239.695981 29.956703,239.609755 30.1564866,239.582691 C32.0204933,239.330936 33.1461971,240.297045 35.0031602,240.556352 C35.8311096,240.67153 37.2411209,239.074776 37.9755818,240.632508 C38.2464423,241.207768 38.708762,242.710114 39.2741753,243.941194 C40.0995634,245.736834 42.2491582,247.522405 44.2226617,248.630125 C51.9751624,252.984222 60.7182569,255.143648 69.4350977,257.012927 C69.9319954,257.119293 70.4525854,257.223142 70.9437201,257.092859 C71.8222557,256.858727 72.3223551,255.975068 72.7417726,255.180782 C74.6871015,251.495723 76.9807711,247.98941 79.5850017,244.720375 C81.9081266,241.804426 84.5591015,239.016873 87.9349323,237.369767 C91.3101227,235.723292 95.5446389,235.392864 98.76679,237.313123 C101.180202,238.751271 102.806645,241.390919 102.984658,244.158962 C103.425206,251.024312 94.2697377,255.496105 89.4960619,259.066616 C84.98044,262.445164 80.2240532,265.512794 75.2717247,268.23741 C74.6602076,268.573502 74.0249981,268.911483 73.3283168,268.984492 C72.5855316,269.062536 71.8491497,268.83218 71.1396617,268.603083 C62.0053244,265.649371 53.1873111,261.920255 44.400674,257.996658 C41.9859817,256.917889 40.4549477,254.728882 38.213145,253.752074 C36.7826431,253.127723 35.2035841,253.650114 33.7212153,253.355561 C32.2548548,253.063525 30.4049354,252.312667 29.1524458,251.511458 C26.6820446,249.929179 26.5110759,246.940222 26.0999827,244.343372 C25.9975296,243.696992 25.9270931,243.260827 26.1300783,242.681162 C26.46113,241.738341 27.2813955,241.202733 28.0754073,240.642578 C28.5460513,240.310892 29.0455104,240.01445 29.569302,239.780319" id="Fill-122" fill="#D39689"></path>
                    <path d="M122.026585,225.983758 C122.116995,225.71272 122.219501,225.443595 122.30609,225.172556 C126.214701,212.903131 112.801016,203.520105 102.342188,210.244405 C97.4441679,213.393551 94.1563253,218.45846 91.0193771,223.369036 C87.0846623,229.533403 83.5860768,235.974548 79.6895631,242.161874 C73.5792948,251.86632 63.4362622,251.049379 53.2492982,248.674446 C51.2290959,253.544844 48.8014151,258.244967 46,262.71104 C53.3065999,266.07893 60.6940588,269.473605 68.5749488,271.082616 C76.4558388,272.691627 84.9937879,272.375947 92.0928284,268.588426 C97.6835616,265.605729 101.991374,260.719387 105.982117,255.791592 C113.15756,246.932148 119.908333,237.155 122.026585,225.983758" id="Fill-123" fill="#3B3387"></path>
                    <path d="M374.242192,25 L370,15.2579704 C370,15.2579704 395.237726,10 421.608178,10 C433.987292,10 446.610262,11.1577412 457,14.5609502 C457,14.5609502 453.782504,14.392165 448.343148,14.392165 C433.504636,14.392165 402.111151,15.6461763 374.242192,25" id="Fill-19" fill="#727AD9"></path>
                </g>
            </g>
        </g>
    </g>
</svg>